M48
;GenerationSoftware,Autodesk,EAGLE,9.6.2*%
;CreationDate,2022-04-27T14:18:27Z*%
FMAT,2
ICI,OFF
METRIC,TZ,000.000
T7C0.350
T6C0.600
T5C0.813
T4C1.016
T3C1.067
T2C3.200
T1C3.200
%
G90
M71
T1
X16383Y65786
X91313Y65786
X97663Y17526
T2
X15138Y17475
X91338Y65735
X67208Y22555
X67208Y50495
X97688Y17475
X16408Y65735
T3
X97663Y65786
X95123Y65786
X67183Y40386
X97663Y30226
X95123Y53086
X97663Y55626
X95123Y55626
X97663Y58166
X95123Y58166
X97663Y60706
X67183Y45466
X95123Y60706
X97663Y63246
X95123Y63246
X87503Y65786
X84963Y65786
X82423Y65786
X79883Y65786
X77343Y65786
X74803Y65786
X72263Y65786
X69723Y65786
X64643Y45466
X64643Y42926
X64643Y40386
X97663Y25146
X95123Y25146
X97663Y27686
X95123Y27686
X67183Y42926
X95123Y30226
X97663Y32766
X95123Y32766
X97663Y35306
X95123Y35306
X97663Y37846
X95123Y37846
X97663Y40386
X95123Y40386
X97663Y42926
X95123Y42926
X97663Y45466
X95123Y45466
X97663Y48006
X95123Y48006
X97663Y50546
X95123Y50546
X97663Y53086
X95123Y22606
X97663Y22606
X64643Y65786
X62103Y65786
X59563Y65786
X57023Y65786
X54483Y65786
X51943Y65786
X49403Y65786
X46863Y65786
X42799Y65786
X40259Y65786
X37719Y65786
X35179Y65786
X32639Y65786
X30099Y65786
X27559Y65786
X25019Y65786
X22479Y65786
X19939Y65786
X34431Y58443
X31891Y58443
X29351Y58443
X26811Y58443
X24654Y32246
X24654Y29706
X24654Y27166
X27194Y32246
X27194Y29706
X27194Y27166
T4
X41783Y17526
X44323Y17526
X46863Y17526
X74803Y17526
X77343Y17526
X79883Y17526
X82423Y17526
X84963Y17526
X87503Y17526
X90043Y17526
X92583Y17526
X67183Y17526
X51943Y17526
X54483Y17526
X57023Y17526
X59563Y17526
X62103Y17526
X64643Y17526
X69723Y17526
X36703Y17526
X39243Y17526
X29076Y17513
X31616Y17513
X34163Y17525
X5080Y64770
X5080Y62230
X5080Y59690
X5080Y52070
X5080Y49530
X5080Y46990
X5080Y17780
X5080Y20320
X11430Y31750
X52070Y31750
X57150Y31750
X54610Y41910
X40640Y31750
X45720Y31750
X43180Y41910
X8890Y21590
X13970Y21590
T5
X31750Y35560
X45720Y46990
X45720Y57150
X49530Y46990
X49530Y57150
X41910Y57150
X41910Y46990
X53340Y46990
X53340Y57150
X35560Y35560
X35560Y25400
X31750Y25400
T6
X23689Y56014
X23689Y54744
X24959Y54744
X24959Y56014
X23689Y53474
X24959Y53474
X23689Y52204
X24959Y52204
X23689Y50934
X24959Y50934
T7
X20879Y33833
X27280Y44196
X30632Y47854
X11430Y33376
M30