G04 EAGLE Gerber RS-274X export*
G75*
%MOMM*%
%FSLAX34Y34*%
%LPD*%
%IN*%
%IPPOS*%
%AMOC8*
5,1,8,0,0,1.08239X$1,22.5*%
G01*
%ADD10C,0.254000*%


D10*
X0Y0D02*
X1000000Y0D01*
X1000000Y800000D01*
X0Y800000D01*
X0Y0D01*
X179832Y657336D02*
X179763Y656291D01*
X179627Y655252D01*
X179422Y654224D01*
X179151Y653212D01*
X178814Y652220D01*
X178413Y651252D01*
X177950Y650313D01*
X177426Y649405D01*
X176844Y648534D01*
X176206Y647703D01*
X175516Y646915D01*
X174775Y646174D01*
X173987Y645484D01*
X173156Y644846D01*
X172285Y644264D01*
X171377Y643740D01*
X170438Y643277D01*
X169470Y642876D01*
X168478Y642539D01*
X167466Y642268D01*
X166438Y642063D01*
X165399Y641927D01*
X164354Y641858D01*
X163306Y641858D01*
X162261Y641927D01*
X161222Y642063D01*
X160194Y642268D01*
X159182Y642539D01*
X158190Y642876D01*
X157222Y643277D01*
X156283Y643740D01*
X155375Y644264D01*
X154504Y644846D01*
X153673Y645484D01*
X152885Y646174D01*
X152144Y646915D01*
X151454Y647703D01*
X150816Y648534D01*
X150234Y649405D01*
X149710Y650313D01*
X149247Y651252D01*
X148846Y652220D01*
X148509Y653212D01*
X148238Y654224D01*
X148033Y655252D01*
X147897Y656291D01*
X147828Y657336D01*
X147828Y658384D01*
X147897Y659429D01*
X148033Y660468D01*
X148238Y661496D01*
X148509Y662508D01*
X148846Y663500D01*
X149247Y664468D01*
X149710Y665407D01*
X150234Y666315D01*
X150816Y667186D01*
X151454Y668017D01*
X152144Y668805D01*
X152885Y669546D01*
X153673Y670236D01*
X154504Y670874D01*
X155375Y671456D01*
X156283Y671980D01*
X157222Y672443D01*
X158190Y672844D01*
X159182Y673181D01*
X160194Y673452D01*
X161222Y673657D01*
X162261Y673793D01*
X163306Y673862D01*
X164354Y673862D01*
X165399Y673793D01*
X166438Y673657D01*
X167466Y673452D01*
X168478Y673181D01*
X169470Y672844D01*
X170438Y672443D01*
X171377Y671980D01*
X172285Y671456D01*
X173156Y670874D01*
X173987Y670236D01*
X174775Y669546D01*
X175516Y668805D01*
X176206Y668017D01*
X176844Y667186D01*
X177426Y666315D01*
X177950Y665407D01*
X178413Y664468D01*
X178814Y663500D01*
X179151Y662508D01*
X179422Y661496D01*
X179627Y660468D01*
X179763Y659429D01*
X179832Y658384D01*
X179832Y657336D01*
X929132Y657336D02*
X929063Y656291D01*
X928927Y655252D01*
X928722Y654224D01*
X928451Y653212D01*
X928114Y652220D01*
X927713Y651252D01*
X927250Y650313D01*
X926726Y649405D01*
X926144Y648534D01*
X925506Y647703D01*
X924816Y646915D01*
X924075Y646174D01*
X923287Y645484D01*
X922456Y644846D01*
X921585Y644264D01*
X920677Y643740D01*
X919738Y643277D01*
X918770Y642876D01*
X917778Y642539D01*
X916766Y642268D01*
X915738Y642063D01*
X914699Y641927D01*
X913654Y641858D01*
X912606Y641858D01*
X911561Y641927D01*
X910522Y642063D01*
X909494Y642268D01*
X908482Y642539D01*
X907490Y642876D01*
X906522Y643277D01*
X905583Y643740D01*
X904675Y644264D01*
X903804Y644846D01*
X902973Y645484D01*
X902185Y646174D01*
X901444Y646915D01*
X900754Y647703D01*
X900116Y648534D01*
X899534Y649405D01*
X899010Y650313D01*
X898547Y651252D01*
X898146Y652220D01*
X897809Y653212D01*
X897538Y654224D01*
X897333Y655252D01*
X897197Y656291D01*
X897128Y657336D01*
X897128Y658384D01*
X897197Y659429D01*
X897333Y660468D01*
X897538Y661496D01*
X897809Y662508D01*
X898146Y663500D01*
X898547Y664468D01*
X899010Y665407D01*
X899534Y666315D01*
X900116Y667186D01*
X900754Y668017D01*
X901444Y668805D01*
X902185Y669546D01*
X902973Y670236D01*
X903804Y670874D01*
X904675Y671456D01*
X905583Y671980D01*
X906522Y672443D01*
X907490Y672844D01*
X908482Y673181D01*
X909494Y673452D01*
X910522Y673657D01*
X911561Y673793D01*
X912606Y673862D01*
X913654Y673862D01*
X914699Y673793D01*
X915738Y673657D01*
X916766Y673452D01*
X917778Y673181D01*
X918770Y672844D01*
X919738Y672443D01*
X920677Y671980D01*
X921585Y671456D01*
X922456Y670874D01*
X923287Y670236D01*
X924075Y669546D01*
X924816Y668805D01*
X925506Y668017D01*
X926144Y667186D01*
X926726Y666315D01*
X927250Y665407D01*
X927713Y664468D01*
X928114Y663500D01*
X928451Y662508D01*
X928722Y661496D01*
X928927Y660468D01*
X929063Y659429D01*
X929132Y658384D01*
X929132Y657336D01*
X992632Y174736D02*
X992563Y173691D01*
X992427Y172652D01*
X992222Y171624D01*
X991951Y170612D01*
X991614Y169620D01*
X991213Y168652D01*
X990750Y167713D01*
X990226Y166805D01*
X989644Y165934D01*
X989006Y165103D01*
X988316Y164315D01*
X987575Y163574D01*
X986787Y162884D01*
X985956Y162246D01*
X985085Y161664D01*
X984177Y161140D01*
X983238Y160677D01*
X982270Y160276D01*
X981278Y159939D01*
X980266Y159668D01*
X979238Y159463D01*
X978199Y159327D01*
X977154Y159258D01*
X976106Y159258D01*
X975061Y159327D01*
X974022Y159463D01*
X972994Y159668D01*
X971982Y159939D01*
X970990Y160276D01*
X970022Y160677D01*
X969083Y161140D01*
X968175Y161664D01*
X967304Y162246D01*
X966473Y162884D01*
X965685Y163574D01*
X964944Y164315D01*
X964254Y165103D01*
X963616Y165934D01*
X963034Y166805D01*
X962510Y167713D01*
X962047Y168652D01*
X961646Y169620D01*
X961309Y170612D01*
X961038Y171624D01*
X960833Y172652D01*
X960697Y173691D01*
X960628Y174736D01*
X960628Y175784D01*
X960697Y176829D01*
X960833Y177868D01*
X961038Y178896D01*
X961309Y179908D01*
X961646Y180900D01*
X962047Y181868D01*
X962510Y182807D01*
X963034Y183715D01*
X963616Y184586D01*
X964254Y185417D01*
X964944Y186205D01*
X965685Y186946D01*
X966473Y187636D01*
X967304Y188274D01*
X968175Y188856D01*
X969083Y189380D01*
X970022Y189843D01*
X970990Y190244D01*
X971982Y190581D01*
X972994Y190852D01*
X974022Y191057D01*
X975061Y191193D01*
X976106Y191262D01*
X977154Y191262D01*
X978199Y191193D01*
X979238Y191057D01*
X980266Y190852D01*
X981278Y190581D01*
X982270Y190244D01*
X983238Y189843D01*
X984177Y189380D01*
X985085Y188856D01*
X985956Y188274D01*
X986787Y187636D01*
X987575Y186946D01*
X988316Y186205D01*
X989006Y185417D01*
X989644Y184586D01*
X990226Y183715D01*
X990750Y182807D01*
X991213Y181868D01*
X991614Y180900D01*
X991951Y179908D01*
X992222Y178896D01*
X992427Y177868D01*
X992563Y176829D01*
X992632Y175784D01*
X992632Y174736D01*
X992884Y174228D02*
X992816Y173183D01*
X992679Y172144D01*
X992474Y171117D01*
X992203Y170105D01*
X991867Y169113D01*
X991466Y168145D01*
X991002Y167206D01*
X990479Y166298D01*
X989897Y165427D01*
X989259Y164596D01*
X988568Y163809D01*
X987827Y163068D01*
X987040Y162377D01*
X986209Y161740D01*
X985338Y161158D01*
X984430Y160634D01*
X983491Y160170D01*
X982523Y159769D01*
X981531Y159433D01*
X980519Y159162D01*
X979492Y158957D01*
X978453Y158821D01*
X977408Y158752D01*
X976360Y158752D01*
X975315Y158821D01*
X974276Y158957D01*
X973249Y159162D01*
X972237Y159433D01*
X971245Y159769D01*
X970277Y160170D01*
X969338Y160634D01*
X968430Y161158D01*
X967559Y161740D01*
X966728Y162377D01*
X965941Y163068D01*
X965200Y163809D01*
X964509Y164596D01*
X963872Y165427D01*
X963290Y166298D01*
X962766Y167206D01*
X962302Y168145D01*
X961901Y169113D01*
X961565Y170105D01*
X961294Y171117D01*
X961089Y172144D01*
X960953Y173183D01*
X960884Y174228D01*
X960884Y175276D01*
X960953Y176321D01*
X961089Y177360D01*
X961294Y178387D01*
X961565Y179399D01*
X961901Y180391D01*
X962302Y181359D01*
X962766Y182298D01*
X963290Y183206D01*
X963872Y184077D01*
X964509Y184908D01*
X965200Y185695D01*
X965941Y186436D01*
X966728Y187127D01*
X967559Y187765D01*
X968430Y188347D01*
X969338Y188870D01*
X970277Y189334D01*
X971245Y189735D01*
X972237Y190071D01*
X973249Y190342D01*
X974276Y190547D01*
X975315Y190684D01*
X976360Y190752D01*
X977408Y190752D01*
X978453Y190684D01*
X979492Y190547D01*
X980519Y190342D01*
X981531Y190071D01*
X982523Y189735D01*
X983491Y189334D01*
X984430Y188870D01*
X985338Y188347D01*
X986209Y187765D01*
X987040Y187127D01*
X987827Y186436D01*
X988568Y185695D01*
X989259Y184908D01*
X989897Y184077D01*
X990479Y183206D01*
X991002Y182298D01*
X991466Y181359D01*
X991867Y180391D01*
X992203Y179399D01*
X992474Y178387D01*
X992679Y177360D01*
X992816Y176321D01*
X992884Y175276D01*
X992884Y174228D01*
X180084Y656828D02*
X180016Y655783D01*
X179879Y654744D01*
X179674Y653717D01*
X179403Y652705D01*
X179067Y651713D01*
X178666Y650745D01*
X178202Y649806D01*
X177679Y648898D01*
X177097Y648027D01*
X176459Y647196D01*
X175768Y646409D01*
X175027Y645668D01*
X174240Y644977D01*
X173409Y644340D01*
X172538Y643758D01*
X171630Y643234D01*
X170691Y642770D01*
X169723Y642369D01*
X168731Y642033D01*
X167719Y641762D01*
X166692Y641557D01*
X165653Y641421D01*
X164608Y641352D01*
X163560Y641352D01*
X162515Y641421D01*
X161476Y641557D01*
X160449Y641762D01*
X159437Y642033D01*
X158445Y642369D01*
X157477Y642770D01*
X156538Y643234D01*
X155630Y643758D01*
X154759Y644340D01*
X153928Y644977D01*
X153141Y645668D01*
X152400Y646409D01*
X151709Y647196D01*
X151072Y648027D01*
X150490Y648898D01*
X149966Y649806D01*
X149502Y650745D01*
X149101Y651713D01*
X148765Y652705D01*
X148494Y653717D01*
X148289Y654744D01*
X148153Y655783D01*
X148084Y656828D01*
X148084Y657876D01*
X148153Y658921D01*
X148289Y659960D01*
X148494Y660987D01*
X148765Y661999D01*
X149101Y662991D01*
X149502Y663959D01*
X149966Y664898D01*
X150490Y665806D01*
X151072Y666677D01*
X151709Y667508D01*
X152400Y668295D01*
X153141Y669036D01*
X153928Y669727D01*
X154759Y670365D01*
X155630Y670947D01*
X156538Y671470D01*
X157477Y671934D01*
X158445Y672335D01*
X159437Y672671D01*
X160449Y672942D01*
X161476Y673147D01*
X162515Y673284D01*
X163560Y673352D01*
X164608Y673352D01*
X165653Y673284D01*
X166692Y673147D01*
X167719Y672942D01*
X168731Y672671D01*
X169723Y672335D01*
X170691Y671934D01*
X171630Y671470D01*
X172538Y670947D01*
X173409Y670365D01*
X174240Y669727D01*
X175027Y669036D01*
X175768Y668295D01*
X176459Y667508D01*
X177097Y666677D01*
X177679Y665806D01*
X178202Y664898D01*
X178666Y663959D01*
X179067Y662991D01*
X179403Y661999D01*
X179674Y660987D01*
X179879Y659960D01*
X180016Y658921D01*
X180084Y657876D01*
X180084Y656828D01*
X929384Y656828D02*
X929316Y655783D01*
X929179Y654744D01*
X928974Y653717D01*
X928703Y652705D01*
X928367Y651713D01*
X927966Y650745D01*
X927502Y649806D01*
X926979Y648898D01*
X926397Y648027D01*
X925759Y647196D01*
X925068Y646409D01*
X924327Y645668D01*
X923540Y644977D01*
X922709Y644340D01*
X921838Y643758D01*
X920930Y643234D01*
X919991Y642770D01*
X919023Y642369D01*
X918031Y642033D01*
X917019Y641762D01*
X915992Y641557D01*
X914953Y641421D01*
X913908Y641352D01*
X912860Y641352D01*
X911815Y641421D01*
X910776Y641557D01*
X909749Y641762D01*
X908737Y642033D01*
X907745Y642369D01*
X906777Y642770D01*
X905838Y643234D01*
X904930Y643758D01*
X904059Y644340D01*
X903228Y644977D01*
X902441Y645668D01*
X901700Y646409D01*
X901009Y647196D01*
X900372Y648027D01*
X899790Y648898D01*
X899266Y649806D01*
X898802Y650745D01*
X898401Y651713D01*
X898065Y652705D01*
X897794Y653717D01*
X897589Y654744D01*
X897453Y655783D01*
X897384Y656828D01*
X897384Y657876D01*
X897453Y658921D01*
X897589Y659960D01*
X897794Y660987D01*
X898065Y661999D01*
X898401Y662991D01*
X898802Y663959D01*
X899266Y664898D01*
X899790Y665806D01*
X900372Y666677D01*
X901009Y667508D01*
X901700Y668295D01*
X902441Y669036D01*
X903228Y669727D01*
X904059Y670365D01*
X904930Y670947D01*
X905838Y671470D01*
X906777Y671934D01*
X907745Y672335D01*
X908737Y672671D01*
X909749Y672942D01*
X910776Y673147D01*
X911815Y673284D01*
X912860Y673352D01*
X913908Y673352D01*
X914953Y673284D01*
X915992Y673147D01*
X917019Y672942D01*
X918031Y672671D01*
X919023Y672335D01*
X919991Y671934D01*
X920930Y671470D01*
X921838Y670947D01*
X922709Y670365D01*
X923540Y669727D01*
X924327Y669036D01*
X925068Y668295D01*
X925759Y667508D01*
X926397Y666677D01*
X926979Y665806D01*
X927502Y664898D01*
X927966Y663959D01*
X928367Y662991D01*
X928703Y661999D01*
X928974Y660987D01*
X929179Y659960D01*
X929316Y658921D01*
X929384Y657876D01*
X929384Y656828D01*
X167384Y174228D02*
X167316Y173183D01*
X167179Y172144D01*
X166974Y171117D01*
X166703Y170105D01*
X166367Y169113D01*
X165966Y168145D01*
X165502Y167206D01*
X164979Y166298D01*
X164397Y165427D01*
X163759Y164596D01*
X163068Y163809D01*
X162327Y163068D01*
X161540Y162377D01*
X160709Y161740D01*
X159838Y161158D01*
X158930Y160634D01*
X157991Y160170D01*
X157023Y159769D01*
X156031Y159433D01*
X155019Y159162D01*
X153992Y158957D01*
X152953Y158821D01*
X151908Y158752D01*
X150860Y158752D01*
X149815Y158821D01*
X148776Y158957D01*
X147749Y159162D01*
X146737Y159433D01*
X145745Y159769D01*
X144777Y160170D01*
X143838Y160634D01*
X142930Y161158D01*
X142059Y161740D01*
X141228Y162377D01*
X140441Y163068D01*
X139700Y163809D01*
X139009Y164596D01*
X138372Y165427D01*
X137790Y166298D01*
X137266Y167206D01*
X136802Y168145D01*
X136401Y169113D01*
X136065Y170105D01*
X135794Y171117D01*
X135589Y172144D01*
X135453Y173183D01*
X135384Y174228D01*
X135384Y175276D01*
X135453Y176321D01*
X135589Y177360D01*
X135794Y178387D01*
X136065Y179399D01*
X136401Y180391D01*
X136802Y181359D01*
X137266Y182298D01*
X137790Y183206D01*
X138372Y184077D01*
X139009Y184908D01*
X139700Y185695D01*
X140441Y186436D01*
X141228Y187127D01*
X142059Y187765D01*
X142930Y188347D01*
X143838Y188870D01*
X144777Y189334D01*
X145745Y189735D01*
X146737Y190071D01*
X147749Y190342D01*
X148776Y190547D01*
X149815Y190684D01*
X150860Y190752D01*
X151908Y190752D01*
X152953Y190684D01*
X153992Y190547D01*
X155019Y190342D01*
X156031Y190071D01*
X157023Y189735D01*
X157991Y189334D01*
X158930Y188870D01*
X159838Y188347D01*
X160709Y187765D01*
X161540Y187127D01*
X162327Y186436D01*
X163068Y185695D01*
X163759Y184908D01*
X164397Y184077D01*
X164979Y183206D01*
X165502Y182298D01*
X165966Y181359D01*
X166367Y180391D01*
X166703Y179399D01*
X166974Y178387D01*
X167179Y177360D01*
X167316Y176321D01*
X167384Y175276D01*
X167384Y174228D01*
X688084Y504428D02*
X688016Y503383D01*
X687879Y502344D01*
X687674Y501317D01*
X687403Y500305D01*
X687067Y499313D01*
X686666Y498345D01*
X686202Y497406D01*
X685679Y496498D01*
X685097Y495627D01*
X684459Y494796D01*
X683768Y494009D01*
X683027Y493268D01*
X682240Y492577D01*
X681409Y491940D01*
X680538Y491358D01*
X679630Y490834D01*
X678691Y490370D01*
X677723Y489969D01*
X676731Y489633D01*
X675719Y489362D01*
X674692Y489157D01*
X673653Y489021D01*
X672608Y488952D01*
X671560Y488952D01*
X670515Y489021D01*
X669476Y489157D01*
X668449Y489362D01*
X667437Y489633D01*
X666445Y489969D01*
X665477Y490370D01*
X664538Y490834D01*
X663630Y491358D01*
X662759Y491940D01*
X661928Y492577D01*
X661141Y493268D01*
X660400Y494009D01*
X659709Y494796D01*
X659072Y495627D01*
X658490Y496498D01*
X657966Y497406D01*
X657502Y498345D01*
X657101Y499313D01*
X656765Y500305D01*
X656494Y501317D01*
X656289Y502344D01*
X656153Y503383D01*
X656084Y504428D01*
X656084Y505476D01*
X656153Y506521D01*
X656289Y507560D01*
X656494Y508587D01*
X656765Y509599D01*
X657101Y510591D01*
X657502Y511559D01*
X657966Y512498D01*
X658490Y513406D01*
X659072Y514277D01*
X659709Y515108D01*
X660400Y515895D01*
X661141Y516636D01*
X661928Y517327D01*
X662759Y517965D01*
X663630Y518547D01*
X664538Y519070D01*
X665477Y519534D01*
X666445Y519935D01*
X667437Y520271D01*
X668449Y520542D01*
X669476Y520747D01*
X670515Y520884D01*
X671560Y520952D01*
X672608Y520952D01*
X673653Y520884D01*
X674692Y520747D01*
X675719Y520542D01*
X676731Y520271D01*
X677723Y519935D01*
X678691Y519534D01*
X679630Y519070D01*
X680538Y518547D01*
X681409Y517965D01*
X682240Y517327D01*
X683027Y516636D01*
X683768Y515895D01*
X684459Y515108D01*
X685097Y514277D01*
X685679Y513406D01*
X686202Y512498D01*
X686666Y511559D01*
X687067Y510591D01*
X687403Y509599D01*
X687674Y508587D01*
X687879Y507560D01*
X688016Y506521D01*
X688084Y505476D01*
X688084Y504428D01*
X688084Y225028D02*
X688016Y223983D01*
X687879Y222944D01*
X687674Y221917D01*
X687403Y220905D01*
X687067Y219913D01*
X686666Y218945D01*
X686202Y218006D01*
X685679Y217098D01*
X685097Y216227D01*
X684459Y215396D01*
X683768Y214609D01*
X683027Y213868D01*
X682240Y213177D01*
X681409Y212540D01*
X680538Y211958D01*
X679630Y211434D01*
X678691Y210970D01*
X677723Y210569D01*
X676731Y210233D01*
X675719Y209962D01*
X674692Y209757D01*
X673653Y209621D01*
X672608Y209552D01*
X671560Y209552D01*
X670515Y209621D01*
X669476Y209757D01*
X668449Y209962D01*
X667437Y210233D01*
X666445Y210569D01*
X665477Y210970D01*
X664538Y211434D01*
X663630Y211958D01*
X662759Y212540D01*
X661928Y213177D01*
X661141Y213868D01*
X660400Y214609D01*
X659709Y215396D01*
X659072Y216227D01*
X658490Y217098D01*
X657966Y218006D01*
X657502Y218945D01*
X657101Y219913D01*
X656765Y220905D01*
X656494Y221917D01*
X656289Y222944D01*
X656153Y223983D01*
X656084Y225028D01*
X656084Y226076D01*
X656153Y227121D01*
X656289Y228160D01*
X656494Y229187D01*
X656765Y230199D01*
X657101Y231191D01*
X657502Y232159D01*
X657966Y233098D01*
X658490Y234006D01*
X659072Y234877D01*
X659709Y235708D01*
X660400Y236495D01*
X661141Y237236D01*
X661928Y237927D01*
X662759Y238565D01*
X663630Y239147D01*
X664538Y239670D01*
X665477Y240134D01*
X666445Y240535D01*
X667437Y240871D01*
X668449Y241142D01*
X669476Y241347D01*
X670515Y241484D01*
X671560Y241552D01*
X672608Y241552D01*
X673653Y241484D01*
X674692Y241347D01*
X675719Y241142D01*
X676731Y240871D01*
X677723Y240535D01*
X678691Y240134D01*
X679630Y239670D01*
X680538Y239147D01*
X681409Y238565D01*
X682240Y237927D01*
X683027Y237236D01*
X683768Y236495D01*
X684459Y235708D01*
X685097Y234877D01*
X685679Y234006D01*
X686202Y233098D01*
X686666Y232159D01*
X687067Y231191D01*
X687403Y230199D01*
X687674Y229187D01*
X687879Y228160D01*
X688016Y227121D01*
X688084Y226076D01*
X688084Y225028D01*
M02*
