G04 EAGLE Gerber RS-274X export*
G75*
%MOMM*%
%FSLAX34Y34*%
%LPD*%
%INSoldermask Bottom*%
%IPPOS*%
%AMOC8*
5,1,8,0,0,1.08239X$1,22.5*%
G01*
%ADD10C,3.403600*%
%ADD11R,2.082800X2.082800*%
%ADD12C,2.082800*%
%ADD13R,1.803400X1.803400*%
%ADD14C,1.803400*%
%ADD15C,3.403200*%
%ADD16C,1.346200*%
%ADD17R,1.311200X1.311200*%
%ADD18P,1.951982X8X22.500000*%
%ADD19C,1.727200*%
%ADD20P,1.649562X8X292.500000*%
%ADD21P,1.649562X8X112.500000*%
%ADD22P,2.144431X8X22.500000*%
%ADD23C,0.959600*%


D10*
X163830Y657860D03*
X913130Y657860D03*
X976630Y175260D03*
D11*
X519430Y175260D03*
D12*
X544830Y175260D03*
X570230Y175260D03*
X595630Y175260D03*
X621030Y175260D03*
X646430Y175260D03*
X671830Y175260D03*
X697230Y175260D03*
X367030Y175260D03*
X392430Y175260D03*
X417830Y175260D03*
X443230Y175260D03*
X468630Y175260D03*
D11*
X748030Y175260D03*
D12*
X773430Y175260D03*
X798830Y175260D03*
X824230Y175260D03*
X849630Y175260D03*
X875030Y175260D03*
X900430Y175260D03*
X925830Y175260D03*
D13*
X976630Y251460D03*
D14*
X951230Y251460D03*
X976630Y276860D03*
X951230Y276860D03*
X976630Y302260D03*
X951230Y302260D03*
X976630Y327660D03*
X951230Y327660D03*
X976630Y353060D03*
X951230Y353060D03*
X976630Y378460D03*
X951230Y378460D03*
X976630Y403860D03*
X951230Y403860D03*
X976630Y429260D03*
X951230Y429260D03*
X976630Y454660D03*
X951230Y454660D03*
X976630Y480060D03*
X951230Y480060D03*
X976630Y505460D03*
X951230Y505460D03*
X976630Y530860D03*
X951230Y530860D03*
X976630Y556260D03*
X951230Y556260D03*
X976630Y581660D03*
X951230Y581660D03*
X976630Y607060D03*
X951230Y607060D03*
X976630Y632460D03*
X951230Y632460D03*
D13*
X875030Y657860D03*
D14*
X849630Y657860D03*
X824230Y657860D03*
X798830Y657860D03*
X773430Y657860D03*
X748030Y657860D03*
X722630Y657860D03*
X697230Y657860D03*
D13*
X646430Y454660D03*
D14*
X646430Y429260D03*
X646430Y403860D03*
X671830Y454660D03*
X671830Y429260D03*
X671830Y403860D03*
D13*
X951230Y657860D03*
D14*
X976630Y657860D03*
D13*
X951230Y226060D03*
D14*
X976630Y226060D03*
D15*
X976884Y174752D03*
X164084Y657352D03*
X913384Y657352D03*
X151384Y174752D03*
X672084Y504952D03*
X672084Y225552D03*
D13*
X646430Y657860D03*
D14*
X621030Y657860D03*
X595630Y657860D03*
X570230Y657860D03*
X544830Y657860D03*
X519430Y657860D03*
X494030Y657860D03*
X468630Y657860D03*
D13*
X427990Y657860D03*
D14*
X402590Y657860D03*
X377190Y657860D03*
X351790Y657860D03*
X326390Y657860D03*
X300990Y657860D03*
X275590Y657860D03*
X250190Y657860D03*
X224790Y657860D03*
X199390Y657860D03*
D16*
X236893Y560142D03*
X236893Y547442D03*
X249593Y547442D03*
X249593Y560142D03*
X236893Y534742D03*
X249593Y534742D03*
X236893Y522042D03*
X249593Y522042D03*
X236893Y509342D03*
D17*
X249593Y509342D03*
D14*
X344307Y584426D03*
X318907Y584426D03*
X293507Y584426D03*
X268107Y584426D03*
D18*
X246540Y322460D03*
X246540Y297060D03*
D13*
X246540Y271660D03*
D18*
X271940Y322460D03*
X271940Y297060D03*
X271940Y271660D03*
D11*
X290760Y175130D03*
D12*
X316160Y175130D03*
X341630Y175250D03*
D19*
X58420Y647700D02*
X43180Y647700D01*
X43180Y622300D02*
X58420Y622300D01*
X58420Y596900D02*
X43180Y596900D01*
X43180Y520700D02*
X58420Y520700D01*
X58420Y495300D02*
X43180Y495300D01*
X43180Y469900D02*
X58420Y469900D01*
X58420Y177800D02*
X43180Y177800D01*
X43180Y203200D02*
X58420Y203200D01*
D20*
X317500Y355600D03*
X317500Y254000D03*
D21*
X457200Y469900D03*
X457200Y571500D03*
X495300Y469900D03*
X495300Y571500D03*
D20*
X419100Y571500D03*
X419100Y469900D03*
D21*
X533400Y469900D03*
X533400Y571500D03*
D20*
X355600Y355600D03*
X355600Y254000D03*
D22*
X520700Y317500D03*
X571500Y317500D03*
X546100Y419100D03*
X406400Y317500D03*
X457200Y317500D03*
X431800Y419100D03*
X88900Y215900D03*
X139700Y215900D03*
X114300Y317500D03*
D23*
X306324Y478536D03*
X272796Y441960D03*
X208788Y338328D03*
X114300Y333756D03*
M02*
